<svg width="58" height="16" viewBox="0 0 58 16" fill="none" xmlns="http://www.w3.org/2000/svg">
<path id="Arrow 4" opacity="0.5" d="M57 8.5C57.2761 8.5 57.5 8.27614 57.5 8C57.5 7.72386 57.2761 7.5 57 7.5L57 8.5ZM0.64645 7.64645C0.451187 7.84171 0.451187 8.1583 0.64645 8.35356L3.82843 11.5355C4.02369 11.7308 4.34028 11.7308 4.53554 11.5355C4.7308 11.3403 4.7308 11.0237 4.53554 10.8284L1.70711 8L4.53554 5.17158C4.7308 4.97632 4.7308 4.65973 4.53554 4.46447C4.34027 4.26921 4.02369 4.26921 3.82843 4.46447L0.64645 7.64645ZM57 7.5L55 7.5L55 8.5L57 8.5L57 7.5ZM51 7.5L47 7.5L47 8.5L51 8.5L51 7.5ZM43 7.5L39 7.5L39 8.5L43 8.5L43 7.5ZM35 7.5L31 7.5L31 8.5L35 8.5L35 7.5ZM27 7.5L23 7.5L23 8.5L27 8.5L27 7.5ZM19 7.5L15 7.5L15 8.5L19 8.5L19 7.5ZM11 7.5L7 7.5L7 8.5L11 8.5L11 7.5ZM3 7.5L1 7.5L1 8.5L3 8.5L3 7.5ZM57 9C57.5523 9 58 8.55228 58 8C58 7.44772 57.5523 7 57 7L57 9ZM0.292896 7.2929C-0.0976258 7.68342 -0.0976257 8.31659 0.292896 8.70711L6.65686 15.0711C7.04738 15.4616 7.68055 15.4616 8.07107 15.0711C8.4616 14.6805 8.4616 14.0474 8.07107 13.6569L2.41422 8L8.07107 2.34315C8.4616 1.95263 8.4616 1.31946 8.07107 0.928936C7.68055 0.538412 7.04738 0.538412 6.65686 0.928937L0.292896 7.2929ZM57 7L55 7L55 9L57 9L57 7ZM51 7L47 7L47 9L51 9L51 7ZM43 7L39 7L39 9L43 9L43 7ZM35 7L31 7L31 9L35 9L35 7ZM27 7L23 7L23 9L27 9L27 7ZM19 7L15 7L15 9L19 9L19 7ZM11 7L7 7L7 9L11 9L11 7ZM3 7L1 7L1 9L3 9L3 7Z" fill="#59A417"/>
</svg>
