<svg width="58" height="16" viewBox="0 0 58 16" fill="none" xmlns="http://www.w3.org/2000/svg">
<path id="Arrow 3" opacity="0.5" d="M1 7.5C0.723858 7.5 0.5 7.72386 0.5 8C0.5 8.27614 0.723858 8.5 1 8.5L1 7.5ZM57.3535 8.35355C57.5488 8.15829 57.5488 7.8417 57.3535 7.64644L54.1716 4.46446C53.9763 4.2692 53.6597 4.2692 53.4645 4.46446C53.2692 4.65972 53.2692 4.97631 53.4645 5.17157L56.2929 8L53.4645 10.8284C53.2692 11.0237 53.2692 11.3403 53.4645 11.5355C53.6597 11.7308 53.9763 11.7308 54.1716 11.5355L57.3535 8.35355ZM1 8.5L3 8.5L3 7.5L1 7.5L1 8.5ZM7 8.5L11 8.5L11 7.5L7 7.5L7 8.5ZM15 8.5L19 8.5L19 7.5L15 7.5L15 8.5ZM23 8.5L27 8.5L27 7.5L23 7.5L23 8.5ZM31 8.5L35 8.5L35 7.5L31 7.5L31 8.5ZM39 8.5L43 8.5L43 7.5L39 7.5L39 8.5ZM47 8.5L51 8.5L51 7.5L47 7.5L47 8.5ZM55 8.5L57 8.5L57 7.5L55 7.5L55 8.5ZM1 7C0.447715 7 -4.82823e-08 7.44772 0 8C4.82823e-08 8.55228 0.447715 9 1 9L1 7ZM57.7071 8.7071C58.0976 8.31658 58.0976 7.68341 57.7071 7.29289L51.3431 0.928928C50.9526 0.538403 50.3195 0.538403 49.9289 0.928928C49.5384 1.31945 49.5384 1.95262 49.9289 2.34314L55.5858 8L49.9289 13.6568C49.5384 14.0474 49.5384 14.6805 49.9289 15.0711C50.3195 15.4616 50.9526 15.4616 51.3431 15.0711L57.7071 8.7071ZM1 9L3 9L3 7L1 7L1 9ZM7 9L11 9L11 7L7 7L7 9ZM15 9L19 9L19 7L15 7L15 9ZM23 9L27 9L27 7L23 7L23 9ZM31 9L35 9L35 7L31 7L31 9ZM39 9L43 9L43 7L39 7L39 9ZM47 9L51 9L51 7L47 7L47 9ZM55 9L57 9L57 7L55 7L55 9Z" fill="#59A417"/>
</svg>
