<svg width="61" height="41" viewBox="0 0 61 41" fill="none" xmlns="http://www.w3.org/2000/svg">
<path id="Arrow 6" opacity="0.5" d="M53.1464 39.8539C53.3417 40.0491 53.6583 40.0491 53.8536 39.8539L57.0355 36.6719C57.2308 36.4766 57.2308 36.16 57.0355 35.9648C56.8403 35.7695 56.5237 35.7695 56.3284 35.9648L53.5 38.7932L50.6716 35.9648C50.4763 35.7695 50.1597 35.7695 49.9645 35.9648C49.7692 36.16 49.7692 36.4766 49.9645 36.6719L53.1464 39.8539ZM1 0.5C0.723858 0.5 0.5 0.723858 0.5 1C0.5 1.27614 0.723858 1.5 1 1.5L1 0.5ZM43.5 1L43.6213 0.514938C43.5816 0.505017 43.5409 0.5 43.5 0.5V1ZM1 1.5L3.125 1.5V0.5L1 0.5L1 1.5ZM7.375 1.5L11.625 1.5V0.5L7.375 0.5V1.5ZM15.875 1.5L20.125 1.5V0.5L15.875 0.5V1.5ZM24.375 1.5L28.625 1.5V0.5L24.375 0.5V1.5ZM32.875 1.5L37.125 1.5V0.5L32.875 0.5V1.5ZM41.375 1.5L43.5 1.5V0.5L41.375 0.5V1.5ZM43.5 1C43.3787 1.48506 43.3786 1.48505 43.3786 1.48503C43.3786 1.48503 43.3785 1.48501 43.3785 1.48501C43.3784 1.48499 43.3784 1.48498 43.3783 1.48497C43.3783 1.48495 43.3782 1.48495 43.3783 1.48496C43.3783 1.48497 43.3786 1.48504 43.379 1.48515C43.38 1.48539 43.3817 1.48582 43.3842 1.48647C43.3891 1.48776 43.3972 1.48988 43.4083 1.49285C43.4305 1.49881 43.4646 1.5082 43.5098 1.52126C43.6002 1.54737 43.7346 1.58812 43.9057 1.64533C44.2481 1.75981 44.7362 1.93987 45.3107 2.20002L45.7232 1.28906C45.1132 1.01285 44.5928 0.820635 44.2228 0.696937C44.0378 0.635058 43.8901 0.590237 43.7874 0.560558C43.736 0.545716 43.6959 0.534653 43.6679 0.527131C43.6539 0.523369 43.6429 0.520493 43.6351 0.518471C43.6312 0.51746 43.6281 0.516662 43.6258 0.516075C43.6246 0.515781 43.6237 0.51554 43.6229 0.51535C43.6226 0.515256 43.6222 0.515174 43.622 0.515105C43.6218 0.515071 43.6217 0.51504 43.6216 0.515012C43.6215 0.514998 43.6215 0.514979 43.6214 0.514972C43.6214 0.514955 43.6213 0.514938 43.5 1ZM48.8359 4.40701C49.8157 5.2365 50.7542 6.27231 51.4908 7.55464L52.3579 7.0565C51.5539 5.65703 50.5343 4.53468 49.4821 3.64381L48.8359 4.40701ZM52.8418 11.4271C52.9442 12.0758 53 12.7659 53 13.5H54C54 12.7151 53.9404 11.9728 53.8296 11.2711L52.8418 11.4271ZM53 13.5V15.6667H54V13.5H53ZM53 20.0001V24.3335H54V20.0001H53ZM53 28.6669L53 33.0002H54L54 28.6669H53ZM53 37.3336V39.5003H54V37.3336H53ZM52.7929 40.2074C53.1834 40.5979 53.8166 40.5979 54.2071 40.2074L60.5711 33.8435C60.9616 33.4529 60.9616 32.8198 60.5711 32.4292C60.1805 32.0387 59.5474 32.0387 59.1569 32.4292L53.5 38.0861L47.8431 32.4292C47.4526 32.0387 46.8195 32.0387 46.4289 32.4292C46.0384 32.8198 46.0384 33.4529 46.4289 33.8435L52.7929 40.2074ZM1 0C0.447715 0 0 0.447715 0 1C0 1.55228 0.447715 2 1 2L1 0ZM43.5 1L43.7426 0.0298757C43.6633 0.0100335 43.5818 0 43.5 0V1ZM1 2H3.125V0L1 0L1 2ZM7.375 2L11.625 2V0L7.375 0V2ZM15.875 2L20.125 2V0L15.875 0V2ZM24.375 2L28.625 2V0L24.375 0V2ZM32.875 2L37.125 2V0L32.875 0V2ZM41.375 2L43.5 2V0L41.375 0V2ZM43.5 1C43.2574 1.97012 43.2573 1.97009 43.2571 1.97006C43.2571 1.97005 43.257 1.97002 43.2569 1.97C43.2568 1.96997 43.2566 1.96993 43.2565 1.9699C43.2563 1.96984 43.2561 1.96979 43.2559 1.96976C43.2556 1.96969 43.2556 1.96966 43.2557 1.96969C43.2559 1.96975 43.2569 1.97 43.2587 1.97047C43.2622 1.97139 43.2689 1.97313 43.2785 1.97572C43.2978 1.98089 43.3289 1.98945 43.371 2.00161C43.4552 2.02594 43.583 2.06465 43.7472 2.11952C44.0758 2.22939 44.5476 2.40338 45.1044 2.6555L45.9294 0.833585C45.3017 0.549337 44.7651 0.351049 44.3814 0.222742C44.1893 0.158529 44.035 0.11167 43.9262 0.0802078C43.8717 0.0644721 43.8285 0.0525733 43.7977 0.0442688C43.7822 0.0401161 43.7698 0.0368606 43.7606 0.0344723C43.756 0.033278 43.7522 0.0323004 43.7492 0.0315356C43.7477 0.0311532 43.7464 0.030824 43.7453 0.0305475C43.7447 0.0304093 43.7442 0.0302842 43.7438 0.0301723C43.7436 0.0301163 43.7434 0.0300636 43.7432 0.0300142C43.7431 0.0299895 43.7429 0.0299549 43.7429 0.0299425C43.7427 0.0299087 43.7426 0.0298757 43.5 1ZM48.5129 4.78862C49.4564 5.58742 50.3543 6.57995 51.0573 7.80371L52.7915 6.80743C51.9538 5.34938 50.8937 4.18376 49.8052 3.26221L48.5129 4.78862ZM52.3479 11.5051C52.4462 12.1273 52.5 12.7914 52.5 13.5H54.5C54.5 12.6897 54.4384 11.9213 54.3234 11.1931L52.3479 11.5051ZM52.5 13.5V15.6667H54.5V13.5H52.5ZM52.5 20.0001V24.3335H54.5V20.0001H52.5ZM52.5 28.6669L52.5 33.0002H54.5L54.5 28.6669H52.5ZM52.5 37.3336V39.5003H54.5V37.3336H52.5Z" fill="#59A417"/>
</svg>
