<svg width="107" height="45" viewBox="0 0 107 45" fill="none" xmlns="http://www.w3.org/2000/svg">
<path fill-rule="evenodd" clip-rule="evenodd" d="M25.2721 40.2965C27.0016 41.6312 29.1248 42.3509 31.3072 42.3421C35.0839 42.3524 38.54 40.2151 40.2264 36.8264C41.9128 33.4376 41.538 29.3832 39.2591 26.3631C37.6635 24.2863 37.6635 21.3922 39.2591 19.3154C41.5501 16.2939 41.9322 12.2301 40.2446 8.83242C38.557 5.43473 35.0924 3.29223 31.3072 3.30558C29.1418 3.29759 27.0341 4.00572 25.3106 5.32031C24.3003 6.10774 23.0568 6.53428 21.7773 6.53224C20.5131 6.53527 19.2838 6.11711 18.2824 5.34347C15.2759 3.04644 11.2308 2.6569 7.84333 4.33818C4.45583 6.01946 2.31147 9.48095 2.30941 13.2712C2.30052 15.4151 2.98674 17.5039 4.26466 19.2228L4.31085 19.2845C5.08797 20.2758 5.51567 21.4973 5.52711 22.7582C5.53179 24.0225 5.11751 25.2525 4.34934 26.2551C1.34127 30.21 1.69901 35.7829 5.1879 39.3184C8.67679 42.854 14.2302 43.2712 18.2055 40.2965H18.2516C20.3212 38.7004 23.2025 38.7004 25.2721 40.2965ZM26.0342 39.2929C24.8135 38.3536 23.3158 37.8485 21.7773 37.8572C20.2341 37.8595 18.736 38.3784 17.5203 39.3315H17.4819C15.9764 40.4765 14.1368 41.0923 12.2473 41.0838C7.44925 41.0796 3.56071 37.1802 3.55646 32.3687C3.54989 30.4586 4.1783 28.6007 5.34236 27.0887C6.27908 25.8647 6.78283 24.3628 6.77416 22.82C6.77941 21.2824 6.27585 19.7865 5.34236 18.5666L5.30387 18.5126C2.68716 15.0328 3.03615 10.1496 6.12096 7.0796C9.20577 4.00957 14.0779 3.69666 17.528 6.34698C18.7456 7.28745 20.2404 7.79526 21.7773 7.79049C23.3362 7.79852 24.8523 7.27906 26.0803 6.3161C27.583 5.17051 29.4196 4.55209 31.3072 4.5561C33.6168 4.54995 35.8341 5.46518 37.4702 7.10002C39.1063 8.73487 40.0268 10.9551 40.0288 13.2712C40.0549 15.1887 39.4427 17.0603 38.2891 18.5898C36.3642 21.114 36.3642 24.6185 38.2891 27.1428C39.4239 28.6468 40.035 30.4827 40.0288 32.3687C40.0268 34.6848 39.1063 36.9051 37.4702 38.5399C35.8341 40.1747 33.6168 41.09 31.3072 41.0838C29.4002 41.0892 27.5454 40.4593 26.0342 39.2929Z" fill="#59A417"/>
<path fill-rule="evenodd" clip-rule="evenodd" d="M25.7493 42.3343C27.6743 43.8321 30.0407 44.6466 32.4772 44.65L32.431 44.596C36.6186 44.5873 40.4438 42.2129 42.3192 38.4583C44.1945 34.7037 43.7999 30.2097 41.2989 26.8416C39.4878 24.4824 39.4878 21.196 41.2989 18.8367C43.8499 15.475 44.2802 10.9537 42.4093 7.16884C40.5384 3.38394 36.6898 0.989566 32.4772 0.989694C30.0606 0.981063 27.7088 1.77349 25.7878 3.24373C24.6417 4.13841 23.2296 4.62217 21.7772 4.61776C20.3473 4.6325 18.953 4.17095 17.8128 3.30548C15.8878 1.80768 13.5214 0.99314 11.0849 0.989694C6.89454 0.99258 3.06397 3.36473 1.18478 7.12053C-0.694415 10.8763 -0.300991 15.3737 2.20158 18.7441L2.27856 18.8058C3.16913 19.9531 3.65145 21.366 3.64878 22.8199C3.65405 24.2573 3.18289 25.6557 2.30935 26.7953C0.814718 28.7222 0.0022232 31.0931 0 33.5343C0.0297255 37.7392 2.42153 41.5679 6.18159 43.4295C9.94164 45.2911 14.4271 44.8673 17.7743 42.3343C20.1255 40.522 23.3981 40.522 25.7493 42.3343ZM26.5037 41.3694C25.1487 40.3255 23.4859 39.7633 21.7772 39.7715C20.0482 39.764 18.367 40.3405 17.0045 41.408C13.0859 44.4262 7.54208 44.0584 4.05405 40.5489C0.566014 37.0394 0.217877 31.479 3.24079 27.5595C4.27764 26.1986 4.83774 24.5326 4.83424 22.8199C4.83839 21.1035 4.27534 19.434 3.23309 18.0725V18.0339C1.94412 16.3283 1.24909 14.2456 1.25475 12.1055C1.25526 8.35489 3.37824 4.92951 6.7317 3.26859C10.0852 1.60766 14.088 1.99898 17.0584 4.27814C18.4113 5.32041 20.0711 5.88248 21.7772 5.87603C23.5079 5.87928 25.1901 5.30337 26.5576 4.23954C28.2587 2.94107 30.3393 2.24109 32.4772 2.24796C35.0884 2.24386 37.5943 3.28012 39.4436 5.12877C41.2928 6.97742 42.334 9.48703 42.3381 12.1055C42.3614 14.272 41.6654 16.3848 40.3598 18.1111C38.2139 20.916 38.2139 24.8164 40.3598 27.6213C43.3427 31.5618 42.9509 37.1091 39.444 40.5887C35.937 44.0683 30.4013 44.4022 26.5037 41.3694Z" fill="#59A417"/>
<path fill-rule="evenodd" clip-rule="evenodd" d="M24.8024 38.2276C26.3358 39.4041 28.214 40.0391 30.1447 40.0339C34.9825 40.0043 38.8923 36.0698 38.9048 31.2185C38.9116 29.305 38.2923 27.442 37.142 25.9153C35.7675 24.1191 35.7675 21.621 37.142 19.8248C39.7674 16.3102 39.4215 11.3957 36.3298 8.28578C33.2382 5.17583 28.3385 4.81361 24.8255 7.4353C23.0296 8.79134 20.5555 8.79134 18.7596 7.4353C17.2289 6.25291 15.3495 5.61473 13.4173 5.62127C8.5662 5.63397 4.63558 9.5721 4.61866 14.4367C4.61807 16.3133 5.21997 18.1403 6.33528 19.6472L6.38916 19.7167C7.07224 20.5993 7.43838 21.6872 7.42837 22.8044C7.43393 23.8718 7.09354 24.9121 6.45845 25.7686L6.41226 25.8304C3.7416 29.3413 4.06754 34.2907 7.17542 37.4189C10.2833 40.5471 15.2177 40.8925 18.7288 38.2276C20.5271 36.8703 23.0041 36.8703 24.8024 38.2276ZM25.5568 37.2164C24.4726 36.3832 23.143 35.9352 21.7772 35.9427C20.3917 35.942 19.0466 36.4097 17.959 37.2704C16.6567 38.2738 15.0597 38.8167 13.4173 38.8143C11.4124 38.8122 9.49053 38.0116 8.07433 36.5886C6.65813 35.1655 5.86367 33.2366 5.86571 31.2262C5.85849 29.605 6.37724 28.0254 7.3437 26.7258L7.41298 26.6332C8.23097 25.5628 8.67706 24.2533 8.68312 22.9048V22.8662V22.8199C8.68992 21.4599 8.24885 20.1357 7.42837 19.0528L7.38219 18.9911C5.05516 15.9705 5.33368 11.6854 8.032 8.99327C10.7303 6.30115 15.0049 6.04365 18.0052 8.39249C20.2411 10.1226 23.3594 10.1226 25.5953 8.39249C28.6064 6.00069 32.9282 6.25674 35.6375 8.98743C38.3468 11.7181 38.5802 16.0533 36.1798 19.0606C34.4704 21.3024 34.4704 24.4145 36.1798 26.6564C37.8787 28.947 38.1502 32.0004 36.8823 34.5563C35.6144 37.1122 33.0221 38.7371 30.1755 38.7602C28.5071 38.7781 26.8808 38.2345 25.5568 37.2164Z" fill="#59A417"/>
<path fill-rule="evenodd" clip-rule="evenodd" d="M24.3714 36.3365C25.7222 37.3771 27.379 37.9391 29.0824 37.9344L29.1132 37.9652C32.0581 37.9652 34.7503 36.2968 36.0672 33.6554C37.3842 31.0141 37.1 27.8533 35.3331 25.4908C34.1575 23.9512 34.1575 21.8123 35.3331 20.2726V20.234C36.3436 18.8831 36.8844 17.2371 36.8727 15.5484C36.8684 11.2443 33.39 7.75615 29.0978 7.7519C27.4315 7.7474 25.8095 8.28959 24.4791 9.29576L24.4099 9.34207C22.87 10.5077 20.746 10.5077 19.2061 9.34207C16.859 7.54923 13.702 7.24319 11.0559 8.55196C8.4097 9.86074 6.73032 12.5588 6.72021 15.5175C6.72021 17.1877 7.26043 18.8129 8.25978 20.1491L8.29827 20.2031C9.47792 21.7385 9.47792 23.8782 8.29827 25.4137C5.98542 28.515 6.29326 32.8487 9.02114 35.59C11.749 38.3313 16.07 38.6492 19.1676 36.3365C20.7083 35.1734 22.8307 35.1734 24.3714 36.3365ZM25.1258 35.3175C24.1654 34.5783 22.9878 34.1792 21.7772 34.1828C20.5517 34.1846 19.3621 34.5976 18.3978 35.3561C15.8079 37.4485 12.0619 37.2477 9.70913 34.8904C7.35639 32.5331 7.15301 28.7768 9.23741 26.1779C10.74 24.1957 10.74 21.452 9.23741 19.4698V19.4312C7.71377 17.4429 7.45834 14.7559 8.57991 12.5148C9.70147 10.2736 12.0024 8.87311 14.5027 8.90979C15.9338 8.90446 17.3259 9.37702 18.4594 10.2529C20.4401 11.7649 23.1836 11.7649 25.1642 10.2529C27.7703 8.2529 31.4533 8.50981 33.7581 10.8524C36.0629 13.195 36.2694 16.8914 34.24 19.4775V19.5161C32.7634 21.509 32.7885 24.2435 34.3016 26.2087C36.2405 28.8217 35.966 32.4671 33.6578 34.7584C31.3496 37.0498 27.7117 37.2881 25.1258 35.3175Z" fill="#59A417"/>
<path fill-rule="evenodd" clip-rule="evenodd" d="M23.9403 34.4529C25.1136 35.3529 26.5507 35.8387 28.0279 35.8346C31.7358 35.8091 34.7259 32.7832 34.7173 29.0648C34.7241 27.6023 34.2507 26.1781 33.3702 25.0122C32.3858 23.7259 32.3858 21.937 33.3702 20.6508C34.2687 19.4777 34.7533 18.0387 34.7481 16.5595C34.7438 12.831 31.7307 9.80941 28.0125 9.80516C26.5435 9.8005 25.1143 10.2836 23.948 11.1792C22.6608 12.1441 20.8937 12.1441 19.6064 11.1792C18.4358 10.2733 16.9975 9.78435 15.5189 9.78972C11.8007 9.79397 8.7875 12.8155 8.78326 16.5441C8.77583 18.0164 9.25496 19.4496 10.1458 20.6199C11.1197 21.9039 11.1197 23.6818 10.1458 24.9659C8.59369 27.0141 8.33496 29.768 9.47829 32.0709C10.6216 34.3737 12.9689 35.8266 15.5343 35.8192C16.9775 35.8276 18.3836 35.3612 19.5371 34.4915L19.5987 34.4529C20.8834 33.4802 22.6556 33.4802 23.9403 34.4529ZM24.6947 33.4494C23.8592 32.8032 22.8323 32.4554 21.7772 32.4613C20.7079 32.4483 19.6659 32.7994 18.8212 33.4571C17.1597 34.7077 14.9363 34.9103 13.0772 33.9806C11.218 33.0508 10.0417 31.1481 10.038 29.0648C10.031 27.8586 10.4266 26.6847 11.1619 25.7301C12.4916 23.9961 12.4916 21.5819 11.1619 19.848C10.4413 18.8987 10.0543 17.737 10.0611 16.5441C10.0653 13.5104 12.5167 11.0522 15.542 11.048C16.7457 11.0431 17.9165 11.4426 18.8674 12.1827C20.6063 13.4873 22.9943 13.4873 24.7332 12.1827C26.3923 10.9267 28.6171 10.72 30.4781 11.649C32.339 12.5779 33.5157 14.4827 33.5164 16.5673C33.5235 17.7735 33.1278 18.9474 32.3925 19.902C31.0628 21.636 31.0628 24.0501 32.3925 25.7841C34.0144 27.9779 33.784 31.033 31.8516 32.9573C29.9191 34.8815 26.8709 35.0911 24.6947 33.4494Z" fill="#59A417"/>
<path fill-rule="evenodd" clip-rule="evenodd" d="M23.486 32.5616C24.4756 33.3279 25.6921 33.7409 26.9424 33.735C29.1168 33.7483 31.1097 32.5207 32.0809 30.5697C33.0521 28.6187 32.8325 26.2836 31.5149 24.549C31.1257 24.0488 30.9168 23.4312 30.9221 22.7967C30.9204 22.1688 31.1261 21.5581 31.5072 21.0599C32.2579 20.0785 32.6663 18.877 32.6696 17.6402C32.6696 15.4695 31.4442 13.4857 29.5061 12.5189C27.5679 11.552 25.251 11.7686 23.5245 13.0781C22.4966 13.8539 21.0807 13.8539 20.0528 13.0781C17.8051 11.3701 14.6501 11.5656 12.6292 13.5381C10.6083 15.5106 10.3282 18.668 11.9701 20.9672L12.0393 21.0599C12.8195 22.0856 12.8195 23.5078 12.0393 24.5336C10.317 26.8076 10.531 30.007 12.5407 32.03C14.5503 34.0531 17.74 34.2799 20.0143 32.5616C21.0422 31.7858 22.4581 31.7858 23.486 32.5616ZM24.2481 31.5581C23.534 31.0133 22.6617 30.7179 21.7646 30.7167H21.7771C20.8598 30.7101 19.9672 31.0148 19.2445 31.5813C17.4655 32.8302 15.0473 32.6089 13.5232 31.0576C11.9991 29.5063 11.8144 27.0784 13.0862 25.3132C14.188 23.8498 14.1912 21.8319 13.0939 20.3651L13.0401 20.2879C12.0291 18.9375 11.8651 17.1305 12.6162 15.6192C13.3673 14.1078 14.9049 13.1512 16.5888 13.1476C17.5661 13.1446 18.5167 13.4678 19.2907 14.0662C20.7744 15.1778 22.8106 15.1778 24.2943 14.0662C26.066 12.7104 28.5654 12.8811 30.1374 14.4653C31.7094 16.0495 31.8673 18.5566 30.5065 20.3265C29.3732 21.8089 29.3732 23.8695 30.5065 25.3518C31.5161 26.703 31.6771 28.5105 30.9221 30.0198C30.1672 31.529 28.6261 32.4804 26.9424 32.4767C25.9672 32.4809 25.0186 32.1575 24.2481 31.5581Z" fill="#59A417"/>
<path fill-rule="evenodd" clip-rule="evenodd" d="M23.0936 30.6782C23.9018 31.3001 24.8923 31.6366 25.9111 31.6354L25.8649 31.6277C27.6306 31.6233 29.243 30.6212 30.0326 29.0375C30.8223 27.4539 30.6542 25.5591 29.5983 24.14C29.3061 23.7656 29.1488 23.3031 29.1518 22.8277C29.1524 22.3588 29.3065 21.9032 29.5906 21.5308L29.6291 21.4768C30.6792 20.057 30.8415 18.1648 30.0486 16.586C29.2557 15.0072 27.6431 14.0115 25.8803 14.0122C24.8624 14.0088 23.872 14.3426 23.0628 14.9617C22.2909 15.5471 21.2252 15.5471 20.4533 14.9617C18.6063 13.5631 16.0166 13.7311 14.3648 15.3567C12.7129 16.9822 12.4966 19.5755 13.8562 21.4536L13.9409 21.5385C14.5314 22.3075 14.5314 23.3787 13.9409 24.1477C12.8903 25.5656 12.7243 27.4556 13.5114 29.0359C14.2986 30.6162 15.9051 31.6183 17.6667 31.6277C18.6845 31.6311 19.6749 31.2973 20.4841 30.6782C21.2585 30.1005 22.3192 30.1005 23.0936 30.6782ZM23.8403 29.6747C23.2479 29.2213 22.5226 28.9771 21.7773 28.98C21.0069 28.9785 20.2594 29.2429 19.6604 29.7287C18.6261 30.5048 17.2438 30.6298 16.0877 30.0518C14.9316 29.4738 14.1993 28.2915 14.1949 26.9961C14.1902 26.2472 14.4369 25.5185 14.8954 24.9273C15.3475 24.3332 15.5911 23.6059 15.5882 22.8585C15.5928 22.1253 15.3546 21.4112 14.9108 20.8284V20.7821C13.8769 19.4172 14.0103 17.4957 15.2228 16.2876C16.4352 15.0796 18.3522 14.9582 19.7066 16.0038C20.9318 16.9237 22.6151 16.9237 23.8403 16.0038C24.4299 15.5505 25.1528 15.3062 25.8957 15.3091C27.7773 15.3133 29.3016 16.8419 29.3058 18.7287C29.3106 19.4776 29.0638 20.2063 28.6053 20.7975V20.8515C28.1785 21.436 27.9493 22.1419 27.951 22.8663C27.9452 23.6081 28.1863 24.3306 28.6361 24.9196C29.4026 25.9553 29.5228 27.3353 28.9469 28.4886C28.3711 29.6418 27.1972 30.3721 25.9111 30.3771C25.1621 30.3807 24.4333 30.1335 23.8403 29.6747Z" fill="#59A417"/>
<path fill-rule="evenodd" clip-rule="evenodd" d="M22.647 28.7793C23.2755 29.2737 24.0498 29.5452 24.8486 29.5512C26.2249 29.541 27.4773 28.752 28.0836 27.513C28.69 26.274 28.5462 24.7979 27.7122 23.7C27.5181 23.4479 27.4125 23.1385 27.412 22.82C27.41 22.5034 27.516 22.1957 27.7122 21.9477C28.2063 21.321 28.4772 20.5466 28.482 19.7477C28.4549 18.3948 27.684 17.1679 26.4787 16.5596C25.2734 15.9512 23.8314 16.0611 22.7317 16.8452L22.6778 16.8916C22.1626 17.2801 21.4533 17.2801 20.9381 16.8916C20.3087 16.3934 19.5307 16.1215 18.7288 16.1196C17.3512 16.1233 16.0941 16.9079 15.4826 18.1458C14.8711 19.3837 15.0103 20.8619 15.8421 21.9631C16.034 22.213 16.137 22.5201 16.1347 22.8354C16.1358 23.1506 16.033 23.4573 15.8421 23.7077C15.0103 24.8089 14.8711 26.2871 15.4826 27.5251C16.0941 28.763 17.3512 29.5476 18.7288 29.5512C19.528 29.5476 20.3031 29.2758 20.9304 28.7793C21.4417 28.4047 22.1358 28.4047 22.647 28.7793ZM24.8486 28.293C24.341 28.298 23.846 28.1352 23.4399 27.8298L23.386 27.8607C22.416 27.1338 21.0845 27.1338 20.1144 27.8607C19.7041 28.1765 19.1999 28.3451 18.6826 28.3393C17.7662 28.3518 16.9246 27.8335 16.5213 27.0081C16.118 26.1828 16.2252 25.1982 16.7967 24.4796C17.5399 23.5131 17.5399 22.1655 16.7967 21.1989C16.4833 20.7895 16.3154 20.2869 16.3194 19.7709C16.3194 18.4565 17.3797 17.3898 18.6903 17.3856C19.2142 17.3838 19.7236 17.5577 20.1375 17.8796C21.0956 18.5824 22.3971 18.5824 23.3552 17.8796L23.4091 17.841C24.3585 17.1345 25.6813 17.2344 26.5145 18.0756C27.3476 18.9169 27.4381 20.2441 26.7269 21.1912C26.3664 21.6571 26.1714 22.2303 26.1726 22.82C26.1753 23.4246 26.3784 24.0112 26.75 24.4873C27.0607 24.8981 27.2284 25.3998 27.2272 25.9154C27.223 27.2297 26.1593 28.293 24.8486 28.293Z" fill="#59A417"/>
<path fill-rule="evenodd" clip-rule="evenodd" d="M22.216 26.9034C22.6669 27.2554 23.2225 27.4456 23.794 27.4437C24.4975 27.4502 25.1736 27.1706 25.6682 26.6689C26.1627 26.1671 26.4336 25.4859 26.419 24.7806C26.4179 24.2223 26.234 23.6799 25.8955 23.2367C25.7089 22.9704 25.7089 22.6153 25.8955 22.349C26.2352 21.906 26.4217 21.364 26.4267 20.8051C26.426 19.817 25.867 18.9146 24.984 18.4759C24.1011 18.0373 23.0465 18.1382 22.2621 18.7364C21.9983 18.9199 21.6485 18.9199 21.3846 18.7364C20.9309 18.3903 20.3765 18.2032 19.8065 18.2037C18.8348 18.2041 17.9447 18.7491 17.5004 19.6158C17.0562 20.4824 17.1321 21.5254 17.6973 22.3181V22.3799C17.7955 22.5056 17.8496 22.6602 17.8513 22.8199C17.8487 22.9781 17.7976 23.1317 17.705 23.2599C16.9014 24.2971 16.995 25.7724 17.9231 26.6992C18.8513 27.626 20.3228 27.7136 21.3538 26.9034C21.6142 26.7269 21.9555 26.7269 22.216 26.9034ZM23.794 26.1546C23.5171 26.153 23.2477 26.0639 23.0242 25.8999L22.978 25.9076C22.2656 25.375 21.2888 25.375 20.5763 25.9076C20.1706 26.2154 19.6261 26.2663 19.1707 26.0388C18.7154 25.8113 18.4279 25.3448 18.4286 24.8346C18.4261 24.5407 18.5239 24.2547 18.7057 24.0241C18.9671 23.6775 19.1077 23.2544 19.106 22.8199C19.1042 22.405 18.9752 22.0008 18.7365 21.662L18.698 21.6157C18.391 21.2089 18.3404 20.6628 18.5672 20.2062C18.7941 19.7496 19.2593 19.4612 19.768 19.462C20.0635 19.4596 20.3511 19.5575 20.584 19.7399C21.2965 20.2725 22.2733 20.2725 22.9857 19.7399C23.2181 19.563 23.5023 19.468 23.794 19.4697C24.5338 19.4697 25.1334 20.0711 25.1334 20.8129C25.1323 21.1086 25.035 21.3959 24.8563 21.6311C24.5961 21.9753 24.4555 22.3956 24.456 22.8276C24.4519 23.2661 24.5957 23.6932 24.864 24.0395C25.034 24.2612 25.1285 24.5318 25.1334 24.8115C25.1334 25.5533 24.5338 26.1546 23.794 26.1546Z" fill="#59A417"/>
<path fill-rule="evenodd" clip-rule="evenodd" d="M79.7266 28.648H77.4173L77.4327 15.9034C77.4865 13.5722 78.6797 11.0865 81.7589 11.0865C82.8059 11.0926 83.8253 11.4243 84.6763 12.036L83.8296 14.0044L83.6679 13.9041C83.1921 13.5531 82.6255 13.3468 82.036 13.3097C80.7929 13.3089 79.7722 14.2949 79.7266 15.5406V16.9995H84.1991V19.1223H79.7266V28.648ZM89.0333 28.648H86.724L86.7317 16.9995H89.041V18.4199L89.2796 18.1343C89.9886 17.3292 90.9829 16.8335 92.0509 16.7525C92.7877 16.7229 93.5218 16.8601 94.1986 17.1539L94.4064 17.2465L93.8445 19.5623L93.5365 19.3925C92.9815 19.1166 92.3701 18.9739 91.7506 18.9757C90.1264 18.9757 89.0333 20.2494 89.0333 22.1329V28.648ZM51.5217 28.563H61.2749V26.5097H54.5393L61.144 18.7441V16.9146H51.7142V19.0374H58.265L51.5217 26.8494V28.563ZM63.8152 33.3258H66.3786L75.7083 16.9146H73.1681L69.4115 23.6227L65.4317 16.9146H62.8453L68.1029 25.9076L63.8152 33.3258ZM104.629 18.5434V16.9995H106.962V28.6402H104.652V27.0964L104.421 27.328C103.479 28.2978 102.192 28.853 100.842 28.8718C99.2476 28.8918 97.7149 28.256 96.6007 27.1125C95.4866 25.969 94.8883 24.4176 94.9453 22.8199C94.8884 21.2269 95.4838 19.68 96.5932 18.5384C97.7025 17.3968 99.2292 16.7599 100.819 16.7757C102.169 16.7911 103.458 17.3469 104.398 18.3195L104.629 18.5434ZM98.4576 25.3944C99.1291 26.0926 100.059 26.4797 101.027 26.4634C101.99 26.4756 102.916 26.0863 103.583 25.3883C104.25 24.6904 104.598 23.7464 104.544 22.7813C104.605 21.4774 103.946 20.2456 102.829 19.5754C101.712 18.9052 100.318 18.9052 99.2009 19.5754C98.0839 20.2456 97.4248 21.4774 97.4855 22.7813C97.4342 23.7498 97.7862 24.6963 98.4576 25.3944Z" fill="white"/>
<mask id="mask0_642_548" style="mask-type:luminance" maskUnits="userSpaceOnUse" x="51" y="11" width="56" height="23">
<path fill-rule="evenodd" clip-rule="evenodd" d="M79.7266 28.648H77.4173L77.4327 15.9034C77.4865 13.5722 78.6797 11.0865 81.7589 11.0865C82.8059 11.0926 83.8253 11.4243 84.6763 12.036L83.8296 14.0044L83.6679 13.9041C83.1921 13.5531 82.6255 13.3468 82.036 13.3097C80.7929 13.3089 79.7722 14.2949 79.7266 15.5406V16.9995H84.1991V19.1223H79.7266V28.648ZM89.0333 28.648H86.724L86.7317 16.9995H89.041V18.4199L89.2796 18.1343C89.9886 17.3292 90.9829 16.8335 92.0509 16.7525C92.7877 16.7229 93.5218 16.8601 94.1986 17.1539L94.4064 17.2465L93.8445 19.5623L93.5365 19.3925C92.9815 19.1166 92.3701 18.9739 91.7506 18.9757C90.1264 18.9757 89.0333 20.2494 89.0333 22.1329V28.648ZM51.5217 28.563H61.2749V26.5097H54.5393L61.144 18.7441V16.9146H51.7142V19.0374H58.265L51.5217 26.8494V28.563ZM63.8152 33.3258H66.3786L75.7083 16.9146H73.1681L69.4115 23.6227L65.4317 16.9146H62.8453L68.1029 25.9076L63.8152 33.3258ZM104.629 18.5434V16.9995H106.962V28.6402H104.652V27.0964L104.421 27.328C103.479 28.2978 102.192 28.853 100.842 28.8718C99.2476 28.8918 97.7149 28.256 96.6007 27.1125C95.4866 25.969 94.8883 24.4176 94.9453 22.8199C94.8884 21.2269 95.4838 19.68 96.5932 18.5384C97.7025 17.3968 99.2292 16.7599 100.819 16.7757C102.169 16.7911 103.458 17.3469 104.398 18.3195L104.629 18.5434ZM98.4576 25.3944C99.1291 26.0926 100.059 26.4797 101.027 26.4634C101.99 26.4756 102.916 26.0863 103.583 25.3883C104.25 24.6904 104.598 23.7464 104.544 22.7813C104.605 21.4774 103.946 20.2456 102.829 19.5754C101.712 18.9052 100.318 18.9052 99.2009 19.5754C98.0839 20.2456 97.4248 21.4774 97.4855 22.7813C97.4342 23.7498 97.7862 24.6963 98.4576 25.3944Z" fill="white"/>
</mask>
<g mask="url(#mask0_642_548)">
<rect x="45.4172" y="0.989746" width="62" height="44" fill="black"/>
</g>
</svg>
