<svg width="107" height="44" viewBox="0 0 107 44" fill="none" xmlns="http://www.w3.org/2000/svg">
<path fill-rule="evenodd" clip-rule="evenodd" d="M25.2721 39.3067C27.0016 40.6415 29.1248 41.3611 31.3072 41.3523C35.0839 41.3626 38.54 39.2253 40.2264 35.8366C41.9128 32.4479 41.538 28.3934 39.2591 25.3734C37.6635 23.2966 37.6635 20.4025 39.2591 18.3257C41.5501 15.3041 41.9322 11.2404 40.2446 7.84267C38.557 4.44499 35.0924 2.30249 31.3072 2.31583C29.1418 2.30784 27.0341 3.01597 25.3106 4.33057C24.3003 5.11799 23.0568 5.54453 21.7773 5.5425C20.5131 5.54552 19.2838 5.12737 18.2824 4.35372C15.2759 2.0567 11.2308 1.66715 7.84333 3.34844C4.45583 5.02972 2.31147 8.4912 2.30941 12.2814C2.30052 14.4254 2.98674 16.5142 4.26466 18.233L4.31085 18.2948C5.08797 19.2861 5.51567 20.5076 5.52711 21.7685C5.53179 23.0327 5.11751 24.2628 4.34934 25.2653C1.34127 29.2202 1.69901 34.7932 5.1879 38.3287C8.67679 41.8642 14.2302 42.2815 18.2055 39.3067H18.2516C20.3212 37.7107 23.2025 37.7107 25.2721 39.3067ZM26.0342 38.3032C24.8135 37.3639 23.3158 36.8587 21.7773 36.8674C20.2341 36.8698 18.736 37.3886 17.5203 38.3418H17.4819C15.9764 39.4868 14.1368 40.1026 12.2473 40.0941C7.44925 40.0898 3.56071 36.1904 3.55646 31.379C3.54989 29.4688 4.1783 27.611 5.34236 26.099C6.27908 24.875 6.78283 23.3731 6.77416 21.8302C6.77941 20.2926 6.27585 18.7967 5.34236 17.5769L5.30387 17.5228C2.68716 14.0431 3.03615 9.15988 6.12096 6.08985C9.20577 3.01982 14.0779 2.70691 17.528 5.35723C18.7456 6.2977 20.2404 6.80551 21.7773 6.80074C23.3362 6.80877 24.8523 6.28931 26.0803 5.32636C27.583 4.18076 29.4196 3.56234 31.3072 3.56636C33.6168 3.56021 35.8341 4.47544 37.4702 6.11028C39.1063 7.74512 40.0268 9.96533 40.0288 12.2814C40.0549 14.199 39.4427 16.0705 38.2891 17.6C36.3642 20.1243 36.3642 23.6288 38.2891 26.153C39.4239 27.6571 40.035 29.493 40.0288 31.379C40.0268 33.6951 39.1063 35.9153 37.4702 37.5502C35.8341 39.185 33.6168 40.1002 31.3072 40.0941C29.4002 40.0994 27.5454 39.4695 26.0342 38.3032Z" fill="#59A417"/>
<path fill-rule="evenodd" clip-rule="evenodd" d="M25.7493 41.3446C27.6743 42.8424 30.0407 43.657 32.4772 43.6604L32.431 43.6064C36.6186 43.5977 40.4438 41.2233 42.3192 37.4687C44.1945 33.714 43.7999 29.2201 41.2989 25.852C39.4878 23.4927 39.4878 20.2063 41.2989 17.8471C43.8499 14.4853 44.2802 9.96412 42.4093 6.17922C40.5384 2.39432 36.6898 -5.82354e-05 32.4772 6.97607e-05C30.0606 -0.00856095 27.7088 0.783867 25.7878 2.2541C24.6417 3.14879 23.2296 3.63255 21.7772 3.62814C20.3473 3.64287 18.953 3.18132 17.8128 2.31586C15.8878 0.818051 13.5214 0.00351591 11.0849 6.97607e-05C6.89454 0.00295552 3.06397 2.37511 1.18478 6.13091C-0.694415 9.8867 -0.300991 14.3841 2.20158 17.7545L2.27856 17.8162C3.16913 18.9634 3.65145 20.3764 3.64878 21.8302C3.65405 23.2676 3.18289 24.666 2.30935 25.8057C0.814718 27.7325 0.0022232 30.1035 0 32.5446C0.0297255 36.7496 2.42153 40.5783 6.18159 42.4399C9.94164 44.3015 14.4271 43.8777 17.7743 41.3446C20.1255 39.5324 23.3981 39.5324 25.7493 41.3446ZM26.5037 40.3797C25.1487 39.3358 23.4859 38.7737 21.7772 38.7818C20.0482 38.7744 18.367 39.3508 17.0045 40.4183C13.0859 43.4365 7.54208 43.0688 4.05405 39.5593C0.566014 36.0498 0.217877 30.4893 3.24079 26.5699C4.27764 25.2089 4.83774 23.5429 4.83424 21.8303C4.83839 20.1139 4.27534 18.4444 3.23309 17.0829V17.0443C1.94412 15.3387 1.24909 13.2559 1.25475 11.1159C1.25526 7.36526 3.37824 3.93989 6.7317 2.27896C10.0852 0.618036 14.088 1.00936 17.0584 3.28851C18.4113 4.33079 20.0711 4.89285 21.7772 4.88641C23.5079 4.88965 25.1901 4.31375 26.5576 3.24992C28.2587 1.95144 30.3393 1.25147 32.4772 1.25834C35.0884 1.25424 37.5943 2.2905 39.4436 4.13915C41.2928 5.98779 42.334 8.4974 42.3381 11.1159C42.3614 13.2824 41.6654 15.3952 40.3598 17.1215C38.2139 19.9264 38.2139 23.8268 40.3598 26.6317C43.3427 30.5722 42.9509 36.1194 39.444 39.599C35.937 43.0786 30.4013 43.4126 26.5037 40.3797Z" fill="#59A417"/>
<path fill-rule="evenodd" clip-rule="evenodd" d="M24.8024 37.238C26.3358 38.4145 28.214 39.0495 30.1447 39.0443C34.9825 39.0146 38.8923 35.0802 38.9048 30.2288C38.9116 28.3153 38.2923 26.4524 37.142 24.9257C35.7675 23.1295 35.7675 20.6314 37.142 18.8351C39.7674 15.3205 39.4215 10.4061 36.3298 7.29615C33.2382 4.1862 28.3385 3.82399 24.8255 6.44568C23.0296 7.80172 20.5555 7.80172 18.7596 6.44568C17.2289 5.26329 15.3495 4.62511 13.4173 4.63164C8.5662 4.64435 4.63558 8.58248 4.61866 13.4471C4.61807 15.3237 5.21997 17.1507 6.33528 18.6576L6.38916 18.7271C7.07224 19.6097 7.43838 20.6976 7.42837 21.8148C7.43393 22.8822 7.09354 23.9224 6.45845 24.779L6.41226 24.8408C3.7416 28.3517 4.06754 33.3011 7.17542 36.4293C10.2833 39.5575 15.2177 39.9029 18.7288 37.238C20.5271 35.8806 23.0041 35.8806 24.8024 37.238ZM25.5568 36.2267C24.4726 35.3936 23.143 34.9455 21.7772 34.953C20.3917 34.9523 19.0466 35.4201 17.959 36.2808C16.6567 37.2842 15.0597 37.8271 13.4173 37.8246C11.4124 37.8226 9.49053 37.022 8.07433 35.5989C6.65813 34.1759 5.86367 32.247 5.86571 30.2366C5.85849 28.6154 6.37724 27.0358 7.3437 25.7362L7.41298 25.6436C8.23097 24.5732 8.67706 23.2637 8.68312 21.9152V21.8766V21.8302C8.68992 20.4703 8.24885 19.1461 7.42837 18.0632L7.38219 18.0015C5.05516 14.9809 5.33368 10.6958 8.032 8.00364C10.7303 5.31152 15.0049 5.05403 18.0052 7.40287C20.2411 9.13297 23.3594 9.13297 25.5953 7.40287C28.6064 5.01107 32.9282 5.26711 35.6375 7.99781C38.3468 10.7285 38.5802 15.0636 36.1798 18.0709C34.4704 20.3128 34.4704 23.4249 36.1798 25.6667C37.8787 27.9573 38.1502 31.0108 36.8823 33.5667C35.6144 36.1226 33.0221 37.7474 30.1755 37.7706C28.5071 37.7885 26.8808 37.2449 25.5568 36.2267Z" fill="#59A417"/>
<path fill-rule="evenodd" clip-rule="evenodd" d="M24.3714 35.3466C25.7222 36.3872 27.379 36.9492 29.0824 36.9445L29.1132 36.9754C32.0581 36.9754 34.7503 35.3069 36.0672 32.6656C37.3842 30.0242 37.1 26.8635 35.3331 24.501C34.1575 22.9613 34.1575 20.8224 35.3331 19.2827V19.2441C36.3436 17.8932 36.8844 16.2472 36.8727 14.5585C36.8684 10.2544 33.39 6.76628 29.0978 6.76203C27.4315 6.75753 25.8095 7.29972 24.4791 8.30589L24.4099 8.3522C22.87 9.51785 20.746 9.51785 19.2061 8.3522C16.859 6.55936 13.702 6.25332 11.0559 7.5621C8.4097 8.87087 6.73032 11.5689 6.72021 14.5276C6.72021 16.1979 7.26043 17.823 8.25978 19.1592L8.29827 19.2133C9.47792 20.7487 9.47792 22.8884 8.29827 24.4238C5.98542 27.5251 6.29326 31.8588 9.02114 34.6001C11.749 37.3414 16.07 37.6593 19.1676 35.3466C20.7083 34.1835 22.8307 34.1835 24.3714 35.3466ZM25.1258 34.3276C24.1654 33.5884 22.9878 33.1894 21.7772 33.1929C20.5517 33.1947 19.3621 33.6078 18.3978 34.3662C15.8079 36.4586 12.0619 36.2578 9.70913 33.9005C7.35639 31.5432 7.15301 27.7869 9.23741 25.188C10.74 23.2058 10.74 20.4621 9.23741 18.4799V18.4413C7.71377 16.453 7.45834 13.7661 8.57991 11.5249C9.70147 9.28374 12.0024 7.88324 14.5027 7.91992C15.9338 7.91459 17.3259 8.38716 18.4594 9.26308C20.4401 10.775 23.1836 10.775 25.1642 9.26308C27.7703 7.26303 31.4533 7.51994 33.7581 9.86255C36.0629 12.2052 36.2694 15.9015 34.24 18.4876V18.5262C32.7634 20.5191 32.7885 23.2536 34.3016 25.2189C36.2405 27.8318 35.966 31.4773 33.6578 33.7686C31.3496 36.0599 27.7117 36.2983 25.1258 34.3276Z" fill="#59A417"/>
<path fill-rule="evenodd" clip-rule="evenodd" d="M23.9403 33.4632C25.1136 34.3633 26.5507 34.8491 28.0279 34.845C31.7358 34.8195 34.7259 31.7935 34.7173 28.0752C34.7241 26.6126 34.2507 25.1885 33.3702 24.0225C32.3858 22.7363 32.3858 20.9474 33.3702 19.6611C34.2687 18.4881 34.7533 17.0491 34.7481 15.5699C34.7438 11.8413 31.7307 8.81979 28.0125 8.81553C26.5435 8.81087 25.1143 9.29402 23.948 10.1896C22.6608 11.1545 20.8937 11.1545 19.6064 10.1896C18.4358 9.28364 16.9975 8.79472 15.5189 8.80009C11.8007 8.80435 8.7875 11.8259 8.78326 15.5545C8.77583 17.0267 9.25496 18.46 10.1458 19.6303C11.1197 20.9143 11.1197 22.6922 10.1458 23.9762C8.59369 26.0245 8.33496 28.7784 9.47829 31.0813C10.6216 33.3841 12.9689 34.837 15.5343 34.8296C16.9775 34.838 18.3836 34.3716 19.5371 33.5018L19.5987 33.4632C20.8834 32.4906 22.6556 32.4906 23.9403 33.4632ZM24.6947 32.4597C23.8592 31.8136 22.8323 31.4658 21.7772 31.4717C20.7079 31.4587 19.6659 31.8098 18.8212 32.4675C17.1597 33.718 14.9363 33.9207 13.0772 32.9909C11.218 32.0612 10.0417 30.1585 10.038 28.0752C10.031 26.869 10.4266 25.6951 11.1619 24.7404C12.4916 23.0065 12.4916 20.5923 11.1619 18.8583C10.4413 17.9091 10.0543 16.7474 10.0611 15.5545C10.0653 12.5208 12.5167 10.0626 15.542 10.0583C16.7457 10.0535 17.9165 10.453 18.8674 11.1931C20.6063 12.4976 22.9943 12.4976 24.7332 11.1931C26.3923 9.93706 28.6171 9.73035 30.4781 10.6593C32.339 11.5883 33.5157 13.4931 33.5164 15.5776C33.5235 16.7838 33.1278 17.9577 32.3925 18.9124C31.0628 20.6464 31.0628 23.0605 32.3925 24.7945C34.0144 26.9883 33.784 30.0434 31.8516 31.9676C29.9191 33.8919 26.8709 34.1015 24.6947 32.4597Z" fill="#59A417"/>
<path fill-rule="evenodd" clip-rule="evenodd" d="M23.4862 31.5719C24.4757 32.3382 25.6922 32.7511 26.9425 32.7452C29.117 32.7586 31.1099 31.531 32.081 29.5799C33.0522 27.6289 32.8327 25.2939 31.515 23.5592C31.1258 23.059 30.9169 22.4414 30.9223 21.807C30.9205 21.1791 31.1262 20.5683 31.5073 20.0701C32.258 19.0888 32.6664 17.8873 32.6697 16.6505C32.6697 14.4797 31.4444 12.496 29.5062 11.5291C27.5681 10.5623 25.2511 10.7789 23.5246 12.0884C22.4967 12.8642 21.0809 12.8642 20.0529 12.0884C17.8052 10.3804 14.6502 10.5759 12.6293 12.5484C10.6084 14.5208 10.3283 17.6782 11.9702 19.9775L12.0395 20.0701C12.8197 21.0959 12.8197 22.5181 12.0395 23.5438C10.3172 25.8178 10.5311 29.0172 12.5408 31.0403C14.5504 33.0633 17.7401 33.2902 20.0144 31.5719C21.0424 30.7961 22.4582 30.7961 23.4862 31.5719ZM24.2482 30.5684C23.5341 30.0236 22.6618 29.7281 21.7647 29.727H21.7772C20.8599 29.7203 19.9674 30.025 19.2446 30.5915C17.4657 31.8405 15.0475 31.6192 13.5233 30.0679C11.9992 28.5166 11.8145 26.0886 13.0864 24.3235C14.1882 22.8601 14.1913 20.8422 13.0941 19.3754L13.0402 19.2982C12.0293 17.9478 11.8652 16.1407 12.6163 14.6294C13.3674 13.1181 14.905 12.1615 16.5889 12.1578C17.5662 12.1548 18.5168 12.478 19.2908 13.0764C20.7745 14.188 22.8107 14.188 24.2944 13.0764C26.0661 11.7206 28.5655 11.8913 30.1375 13.4755C31.7095 15.0597 31.8674 17.5669 30.5066 19.3368C29.3733 20.8191 29.3733 22.8797 30.5066 24.3621C31.5163 25.7133 31.6772 27.5208 30.9223 29.03C30.1673 30.5392 28.6262 31.4906 26.9425 31.487C25.9673 31.4912 25.0188 31.1678 24.2482 30.5684Z" fill="#59A417"/>
<path fill-rule="evenodd" clip-rule="evenodd" d="M23.0935 29.6885C23.9017 30.3104 24.8922 30.6469 25.9109 30.6456L25.8647 30.6379C27.6304 30.6336 29.2429 29.6315 30.0325 28.0478C30.8222 26.4641 30.6541 24.5693 29.5982 23.1502C29.306 22.7758 29.1487 22.3133 29.1517 21.8379C29.1522 21.3691 29.3064 20.9134 29.5905 20.5411L29.629 20.487C30.6791 19.0672 30.8414 17.1751 30.0485 15.5963C29.2556 14.0175 27.6429 13.0217 25.8801 13.0225C24.8623 13.019 23.8719 13.3528 23.0627 13.972C22.2908 14.5574 21.2251 14.5574 20.4532 13.972C18.6062 12.5734 16.0165 12.7414 14.3646 14.3669C12.7128 15.9925 12.4965 18.5857 13.8561 20.4639L13.9408 20.5488C14.5312 21.3177 14.5312 22.389 13.9408 23.1579C12.8902 24.5759 12.7241 26.4658 13.5113 28.0461C14.2984 29.6264 15.905 30.6285 17.6665 30.6379C18.6844 30.6414 19.6748 30.3076 20.484 29.6885C21.2584 29.1108 22.319 29.1108 23.0935 29.6885ZM23.8402 28.6849C23.2477 28.2316 22.5224 27.9873 21.7772 27.9902C21.0068 27.9888 20.2593 28.2531 19.6603 28.739C18.626 29.5151 17.2437 29.6401 16.0876 29.062C14.9315 28.484 14.1992 27.3018 14.1948 26.0063C14.19 25.2574 14.4368 24.5287 14.8953 23.9376C15.3474 23.3435 15.591 22.6161 15.5881 21.8688C15.5927 21.1355 15.3544 20.4215 14.9107 19.8386V19.7923C13.8768 18.4275 14.0102 16.5059 15.2226 15.2979C16.4351 14.0898 18.3521 13.9685 19.7065 15.0141C20.9317 15.934 22.615 15.934 23.8402 15.0141C24.4298 14.5608 25.1526 14.3164 25.8955 14.3193C27.7771 14.3236 29.3014 15.8521 29.3057 17.739C29.3105 18.4879 29.0637 19.2166 28.6052 19.8078V19.8618C28.1784 20.4462 27.9491 21.1522 27.9509 21.8765C27.9451 22.6183 28.1862 23.3409 28.636 23.9299C29.4024 24.9655 29.5226 26.3456 28.9468 27.4988C28.371 28.6521 27.1971 29.3823 25.9109 29.3874C25.162 29.3909 24.4332 29.1437 23.8402 28.6849Z" fill="#59A417"/>
<path fill-rule="evenodd" clip-rule="evenodd" d="M22.647 27.7895C23.2755 28.284 24.0498 28.5555 24.8486 28.5615C26.2249 28.5513 27.4773 27.7622 28.0836 26.5233C28.69 25.2843 28.5462 23.8081 27.7122 22.7102C27.5181 22.4581 27.4125 22.1487 27.412 21.8302C27.41 21.5137 27.516 21.2059 27.7122 20.958C28.2063 20.3312 28.4772 19.5569 28.482 18.758C28.4549 17.4051 27.684 16.1782 26.4787 15.5698C25.2734 14.9614 23.8314 15.0714 22.7317 15.8555L22.6778 15.9018C22.1626 16.2904 21.4533 16.2904 20.9381 15.9018C20.3087 15.4036 19.5307 15.1318 18.7288 15.1299C17.3512 15.1335 16.0941 15.9181 15.4826 17.156C14.8711 18.3939 15.0103 19.8722 15.8421 20.9734C16.034 21.2233 16.137 21.5303 16.1347 21.8457C16.1358 22.1608 16.033 22.4675 15.8421 22.718C15.0103 23.8192 14.8711 25.2974 15.4826 26.5353C16.0941 27.7732 17.3512 28.5578 18.7288 28.5615C19.528 28.5578 20.3031 28.2861 20.9304 27.7895C21.4417 27.415 22.1358 27.415 22.647 27.7895ZM24.8486 27.3032C24.341 27.3083 23.846 27.1455 23.4399 26.8401L23.386 26.8709C22.416 26.144 21.0845 26.144 20.1144 26.8709C19.7041 27.1868 19.1999 27.3553 18.6826 27.3495C17.7662 27.362 16.9246 26.8437 16.5213 26.0184C16.118 25.193 16.2252 24.2085 16.7967 23.4899C17.5399 22.5233 17.5399 21.1758 16.7967 20.2092C16.4833 19.7998 16.3154 19.2972 16.3194 18.7811C16.3194 17.4668 17.3797 16.4001 18.6903 16.3958C19.2142 16.394 19.7236 16.5679 20.1375 16.8899C21.0956 17.5927 22.3971 17.5927 23.3552 16.8899L23.4091 16.8513C24.3585 16.1447 25.6813 16.2447 26.5145 17.0859C27.3476 17.9272 27.4381 19.2543 26.7269 20.2015C26.3664 20.6673 26.1714 21.2406 26.1726 21.8302C26.1753 22.4349 26.3784 23.0214 26.75 23.4976C27.0607 23.9084 27.2284 24.4101 27.2272 24.9257C27.223 26.24 26.1593 27.3032 24.8486 27.3032Z" fill="#59A417"/>
<path fill-rule="evenodd" clip-rule="evenodd" d="M22.216 25.9138C22.6669 26.2657 23.2225 26.456 23.794 26.4541C24.4975 26.4605 25.1736 26.181 25.6682 25.6792C26.1627 25.1775 26.4336 24.4963 26.419 23.791C26.4179 23.2327 26.234 22.6903 25.8955 22.2471C25.7089 21.9808 25.7089 21.6257 25.8955 21.3594C26.2352 20.9163 26.4217 20.3744 26.4267 19.8155C26.426 18.8274 25.867 17.9249 24.984 17.4863C24.1011 17.0477 23.0465 17.1486 22.2621 17.7467C21.9983 17.9303 21.6485 17.9303 21.3846 17.7467C20.9309 17.4007 20.3765 17.2135 19.8065 17.2141C18.8348 17.2145 17.9447 17.7595 17.5004 18.6262C17.0562 19.4928 17.1321 20.5358 17.6973 21.3285V21.3903C17.7955 21.5159 17.8496 21.6706 17.8513 21.8303C17.8487 21.9885 17.7976 22.1421 17.705 22.2703C16.9014 23.3075 16.995 24.7828 17.9231 25.7096C18.8513 26.6364 20.3228 26.724 21.3538 25.9138C21.6142 25.7372 21.9555 25.7372 22.216 25.9138ZM23.794 25.165C23.5171 25.1634 23.2477 25.0743 23.0242 24.9103L22.978 24.918C22.2656 24.3853 21.2888 24.3853 20.5763 24.918C20.1706 25.2258 19.6261 25.2766 19.1707 25.0492C18.7154 24.8217 18.4279 24.3551 18.4286 23.845C18.4261 23.551 18.5239 23.2651 18.7057 23.0345C18.9671 22.6879 19.1077 22.2648 19.106 21.8303C19.1042 21.4154 18.9752 21.0112 18.7365 20.6724L18.698 20.626C18.391 20.2193 18.3404 19.6732 18.5672 19.2166C18.7941 18.7599 19.2593 18.4716 19.768 18.4724C20.0635 18.47 20.3511 18.5679 20.584 18.7503C21.2965 19.2829 22.2733 19.2829 22.9857 18.7503C23.2181 18.5734 23.5023 18.4784 23.794 18.4801C24.5338 18.4801 25.1334 19.0814 25.1334 19.8232C25.1323 20.119 25.035 20.4062 24.8563 20.6415C24.5961 20.9857 24.4555 21.406 24.456 21.838C24.4519 22.2765 24.5957 22.7036 24.864 23.0499C25.034 23.2716 25.1285 23.5422 25.1334 23.8218C25.1334 24.5636 24.5338 25.165 23.794 25.165Z" fill="#59A417"/>
<path fill-rule="evenodd" clip-rule="evenodd" d="M79.7265 27.6583H77.4171L77.4325 14.9138C77.4864 12.5825 78.6796 10.0969 81.7587 10.0969C82.8058 10.1029 83.8252 10.4347 84.6762 11.0464L83.8294 13.0148L83.6678 12.9145C83.1919 12.5635 82.6254 12.3571 82.0359 12.3201C80.7928 12.3192 79.7721 13.3053 79.7265 14.551V16.0099H84.1989V18.1327H79.7265V27.6583ZM89.0332 27.6583H86.7238L86.7315 16.0099H89.0409V17.4303L89.2795 17.1446C89.9885 16.3396 90.9828 15.8439 92.0507 15.7629C92.7876 15.7333 93.5217 15.8705 94.1984 16.1643L94.4063 16.2569L93.8443 18.5727L93.5364 18.4029C92.9814 18.127 92.37 17.9843 91.7505 17.986C90.1263 17.986 89.0332 19.2597 89.0332 21.1432V27.6583ZM51.5216 27.5734H61.2748V25.5201H54.5392L61.1439 17.7545V15.925H51.7141V18.0478H58.2649L51.5216 25.8597V27.5734ZM63.8151 32.3362H66.3784L75.7082 15.925H73.1679L69.4114 22.6331L65.4316 15.925H62.8451L68.1028 24.918L63.8151 32.3362ZM104.629 17.5538V16.0099H106.961V27.6506H104.652V26.1067L104.421 26.3383C103.479 27.3081 102.192 27.8634 100.842 27.8822C99.2475 27.9022 97.7148 27.2664 96.6006 26.1229C95.4864 24.9793 94.8881 23.428 94.9451 21.8303C94.8883 20.2373 95.4837 18.6903 96.593 17.5487C97.7024 16.4072 99.2291 15.7703 100.819 15.786C102.169 15.8014 103.458 16.3572 104.398 17.3299L104.629 17.5538ZM98.4575 24.4048C99.1289 25.103 100.059 25.4901 101.026 25.4738C101.99 25.4859 102.916 25.0967 103.583 24.3987C104.25 23.7008 104.598 22.7567 104.544 21.7917C104.605 20.4878 103.946 19.256 102.829 18.5858C101.712 17.9156 100.318 17.9156 99.2008 18.5858C98.0838 19.256 97.4247 20.4878 97.4854 21.7917C97.434 22.7602 97.7861 23.7066 98.4575 24.4048Z" fill="white"/>
<mask id="mask0_579_3" style="mask-type:luminance" maskUnits="userSpaceOnUse" x="51" y="10" width="56" height="23">
<path fill-rule="evenodd" clip-rule="evenodd" d="M79.7265 27.6583H77.4171L77.4325 14.9138C77.4864 12.5825 78.6796 10.0969 81.7587 10.0969C82.8058 10.1029 83.8252 10.4347 84.6762 11.0464L83.8294 13.0148L83.6678 12.9145C83.1919 12.5635 82.6254 12.3571 82.0359 12.3201C80.7928 12.3192 79.7721 13.3053 79.7265 14.551V16.0099H84.1989V18.1327H79.7265V27.6583ZM89.0332 27.6583H86.7238L86.7315 16.0099H89.0409V17.4303L89.2795 17.1446C89.9885 16.3396 90.9828 15.8439 92.0507 15.7629C92.7876 15.7333 93.5217 15.8705 94.1984 16.1643L94.4063 16.2569L93.8443 18.5727L93.5364 18.4029C92.9814 18.127 92.37 17.9843 91.7505 17.986C90.1263 17.986 89.0332 19.2597 89.0332 21.1432V27.6583ZM51.5216 27.5734H61.2748V25.5201H54.5392L61.1439 17.7545V15.925H51.7141V18.0478H58.2649L51.5216 25.8597V27.5734ZM63.8151 32.3362H66.3784L75.7082 15.925H73.1679L69.4114 22.6331L65.4316 15.925H62.8451L68.1028 24.918L63.8151 32.3362ZM104.629 17.5538V16.0099H106.961V27.6506H104.652V26.1067L104.421 26.3383C103.479 27.3081 102.192 27.8634 100.842 27.8822C99.2475 27.9022 97.7148 27.2664 96.6006 26.1229C95.4864 24.9793 94.8881 23.428 94.9451 21.8303C94.8883 20.2373 95.4837 18.6903 96.593 17.5487C97.7024 16.4072 99.2291 15.7703 100.819 15.786C102.169 15.8014 103.458 16.3572 104.398 17.3299L104.629 17.5538ZM98.4575 24.4048C99.1289 25.103 100.059 25.4901 101.026 25.4738C101.99 25.4859 102.916 25.0967 103.583 24.3987C104.25 23.7008 104.598 22.7567 104.544 21.7917C104.605 20.4878 103.946 19.256 102.829 18.5858C101.712 17.9156 100.318 17.9156 99.2008 18.5858C98.0838 19.256 97.4247 20.4878 97.4854 21.7917C97.434 22.7602 97.7861 23.7066 98.4575 24.4048Z" fill="white"/>
</mask>
<g mask="url(#mask0_579_3)">
<rect x="45.4172" width="62" height="44" fill="white"/>
</g>
</svg>
