<svg width="56" height="23" viewBox="0 0 56 23" fill="none" xmlns="http://www.w3.org/2000/svg">
<path fill-rule="evenodd" clip-rule="evenodd" d="M28.7265 17.6583H26.4171L26.4325 4.91377C26.4864 2.58254 27.6796 0.0969238 30.7587 0.0969238C31.8058 0.102931 32.8252 0.434684 33.6762 1.0464L32.8294 3.01482L32.6678 2.91447C32.1919 2.56346 31.6254 2.35713 31.0359 2.32008C29.7928 2.31924 28.7721 3.30526 28.7265 4.55096V6.00991H33.1989V8.13271H28.7265V17.6583ZM38.0332 17.6583H35.7238L35.7315 6.00991H38.0409V7.43026L38.2795 7.14464C38.9885 6.33962 39.9828 5.84386 41.0507 5.76289C41.7876 5.7333 42.5217 5.87049 43.1984 6.16429L43.4063 6.25692L42.8443 8.57271L42.5364 8.40289C41.9814 8.12698 41.37 7.98427 40.7505 7.98605C39.1263 7.98605 38.0332 9.25973 38.0332 11.1432V17.6583ZM0.521606 17.5734H10.2748V15.5201H3.53916L10.1439 7.75447V5.92499H0.714052V8.0478H7.26492L0.521606 15.8597V17.5734ZM12.8151 22.3362H15.3784L24.7082 5.92499H22.1679L18.4114 12.6331L14.4316 5.92499H11.8451L17.1028 14.918L12.8151 22.3362ZM53.629 7.55377V6.00991H55.9615V17.6506H53.6521V16.1067L53.4212 16.3383C52.4791 17.3081 51.1917 17.8634 49.8417 17.8822C48.2475 17.9022 46.7148 17.2664 45.6006 16.1229C44.4864 14.9793 43.8881 13.428 43.9451 11.8303C43.8883 10.2373 44.4837 8.69035 45.593 7.54875C46.7024 6.40715 48.2291 5.77027 49.8186 5.78605C51.1693 5.80145 52.4579 6.35724 53.3981 7.32991L53.629 7.55377ZM47.4575 14.4048C48.1289 15.103 49.0593 15.4901 50.0264 15.4738C50.9902 15.4859 51.9159 15.0967 52.5827 14.3987C53.2495 13.7008 53.5977 12.7567 53.5443 11.7917C53.6051 10.4878 52.946 9.25597 51.8289 8.5858C50.7119 7.91562 49.3179 7.91562 48.2008 8.5858C47.0838 9.25597 46.4247 10.4878 46.4854 11.7917C46.434 12.7602 46.7861 13.7066 47.4575 14.4048Z" fill="white"/>
</svg>
