<svg width="62" height="41" viewBox="0 0 62 41" fill="none" xmlns="http://www.w3.org/2000/svg">
<path id="Arrow 5" opacity="0.5" d="M8.35355 1.14613C8.15829 0.950871 7.84171 0.950871 7.64644 1.14613L4.46446 4.32811C4.2692 4.52338 4.2692 4.83996 4.46446 5.03522C4.65973 5.23049 4.97631 5.23049 5.17157 5.03522L8 2.2068L10.8284 5.03522C11.0237 5.23048 11.3403 5.23048 11.5355 5.03522C11.7308 4.83996 11.7308 4.52338 11.5355 4.32811L8.35355 1.14613ZM60.5 40.5C60.7761 40.5 61 40.2761 61 40C61 39.7239 60.7761 39.5 60.5 39.5L60.5 40.5ZM18 40L17.8787 40.4851C17.9184 40.495 17.9591 40.5 18 40.5L18 40ZM60.5 39.5L58.375 39.5L58.375 40.5L60.5 40.5L60.5 39.5ZM54.125 39.5L49.875 39.5L49.875 40.5L54.125 40.5L54.125 39.5ZM45.625 39.5L41.375 39.5L41.375 40.5L45.625 40.5L45.625 39.5ZM37.125 39.5L32.875 39.5L32.875 40.5L37.125 40.5L37.125 39.5ZM28.625 39.5L24.375 39.5L24.375 40.5L28.625 40.5L28.625 39.5ZM20.125 39.5L18 39.5L18 40.5L20.125 40.5L20.125 39.5ZM18 40C18.1213 39.5149 18.1214 39.515 18.1214 39.515C18.1214 39.515 18.1215 39.515 18.1215 39.515C18.1216 39.515 18.1216 39.515 18.1217 39.515C18.1217 39.5151 18.1218 39.5151 18.1217 39.515C18.1217 39.515 18.1214 39.515 18.121 39.5149C18.12 39.5146 18.1183 39.5142 18.1158 39.5135C18.1109 39.5122 18.1028 39.5101 18.0917 39.5071C18.0695 39.5012 18.0354 39.4918 17.9902 39.4787C17.8998 39.4526 17.7654 39.4119 17.5943 39.3547C17.2519 39.2402 16.7638 39.0601 16.1893 38.8L15.7768 39.7109C16.3868 39.9872 16.9072 40.1794 17.2772 40.3031C17.4622 40.3649 17.6099 40.4098 17.7126 40.4394C17.764 40.4543 17.8041 40.4654 17.8321 40.4729C17.8461 40.4766 17.8571 40.4795 17.8649 40.4815C17.8688 40.4825 17.8719 40.4833 17.8742 40.4839C17.8754 40.4842 17.8763 40.4845 17.8771 40.4847C17.8774 40.4847 17.8778 40.4848 17.878 40.4849C17.8782 40.4849 17.8783 40.485 17.8784 40.485C17.8785 40.485 17.8785 40.485 17.8786 40.485C17.8786 40.485 17.8787 40.4851 18 40ZM12.6641 36.593C11.6843 35.7635 10.7458 34.7277 10.0092 33.4454L9.14207 33.9435C9.94605 35.343 10.9657 36.4653 12.0179 37.3562L12.6641 36.593ZM8.65819 29.5729C8.55575 28.9242 8.5 28.2341 8.5 27.5L7.5 27.5C7.5 28.2849 7.55963 29.0272 7.67044 29.7289L8.65819 29.5729ZM8.5 27.5L8.5 25.3333L7.5 25.3333L7.5 27.5L8.5 27.5ZM8.5 20.9999L8.5 16.6665L7.5 16.6665L7.5 20.9999L8.5 20.9999ZM8.5 12.3331L8.5 7.99976L7.5 7.99976L7.5 12.3331L8.5 12.3331ZM8.5 3.66638L8.5 1.49969L7.5 1.49969L7.5 3.66638L8.5 3.66638ZM8.7071 0.79258C8.31658 0.402058 7.68341 0.402058 7.29289 0.79258L0.928929 7.15654C0.538404 7.54707 0.538404 8.18023 0.928929 8.57076C1.31946 8.96128 1.95262 8.96128 2.34314 8.57076L8 2.9139L13.6568 8.57076C14.0474 8.96128 14.6805 8.96128 15.0711 8.57076C15.4616 8.18023 15.4616 7.54707 15.0711 7.15654L8.7071 0.79258ZM60.5 41C61.0523 41 61.5 40.5523 61.5 40C61.5 39.4477 61.0523 39 60.5 39L60.5 41ZM18 40L17.7574 40.9701C17.8367 40.99 17.9182 41 18 41L18 40ZM60.5 39L58.375 39L58.375 41L60.5 41L60.5 39ZM54.125 39L49.875 39L49.875 41L54.125 41L54.125 39ZM45.625 39L41.375 39L41.375 41L45.625 41L45.625 39ZM37.125 39L32.875 39L32.875 41L37.125 41L37.125 39ZM28.625 39L24.375 39L24.375 41L28.625 41L28.625 39ZM20.125 39L18 39L18 41L20.125 41L20.125 39ZM18 40C18.2426 39.0299 18.2427 39.0299 18.2429 39.0299C18.2429 39.03 18.243 39.03 18.2431 39.03C18.2432 39.03 18.2434 39.0301 18.2435 39.0301C18.2437 39.0302 18.2439 39.0302 18.2441 39.0302C18.2444 39.0303 18.2444 39.0303 18.2443 39.0303C18.2441 39.0303 18.2431 39.03 18.2413 39.0295C18.2378 39.0286 18.2311 39.0269 18.2215 39.0243C18.2022 39.0191 18.1711 39.0106 18.129 38.9984C18.0448 38.9741 17.917 38.9354 17.7528 38.8805C17.4242 38.7706 16.9524 38.5966 16.3956 38.3445L15.5706 40.1664C16.1983 40.4507 16.7349 40.649 17.1186 40.7773C17.3107 40.8415 17.465 40.8883 17.5738 40.9198C17.6283 40.9355 17.6715 40.9474 17.7023 40.9557C17.7178 40.9599 17.7302 40.9631 17.7394 40.9655C17.744 40.9667 17.7478 40.9677 17.7508 40.9685C17.7523 40.9689 17.7536 40.9692 17.7547 40.9695C17.7553 40.9696 17.7558 40.9697 17.7562 40.9698C17.7564 40.9699 17.7566 40.9699 17.7568 40.97C17.7569 40.97 17.7571 40.97 17.7571 40.9701C17.7573 40.9701 17.7574 40.9701 18 40ZM12.9871 36.2114C12.0436 35.4126 11.1457 34.4201 10.4427 33.1963L8.70852 34.1926C9.54615 35.6506 10.6063 36.8162 11.6948 37.7378L12.9871 36.2114ZM9.15208 29.4949C9.05381 28.8727 9 28.2086 9 27.5L7 27.5C7 28.3103 7.06157 29.0788 7.17655 29.8069L9.15208 29.4949ZM9 27.5L9 25.3333L7 25.3333L7 27.5L9 27.5ZM9 20.9999L9 16.6665L7 16.6665L7 20.9999L9 20.9999ZM9 12.3331L9 7.99976L7 7.99976L7 12.3331L9 12.3331ZM9 3.66638L9 1.49969L7 1.49969L7 3.66638L9 3.66638Z" fill="#59A417"/>
</svg>
