<svg width="22" height="23" viewBox="0 0 22 23"
  xmlns="http://www.w3.org/2000/svg">
  <path d="M12.7737 22.052C12.682 22.0669 12.59 22.0807 12.4977 22.0933C12.59 22.0807 12.682 22.0669 12.7737 22.052Z" fill="black"/>
  <path d="M12.994 22.0144C12.9501 22.0225 12.9063 22.0298 12.8625 22.0374C12.9063 22.0298 12.9501 22.0225 12.994 22.0144Z" fill="black"/>
  <path d="M12.2518 22.1238C12.1446 22.1359 12.0366 22.1466 11.9284 22.1557C12.0366 22.1466 12.1446 22.1359 12.2518 22.1238Z" fill="black"/>
  <path d="M12.4632 22.0978C12.4116 22.1047 12.3598 22.111 12.3081 22.1171C12.3598 22.111 12.4116 22.1047 12.4632 22.0978Z" fill="black"/>
  <path d="M13.2931 21.9553C13.2545 21.9635 13.2157 21.9718 13.1769 21.9797C13.2157 21.9718 13.2545 21.9635 13.2931 21.9553Z" fill="black"/>
  <path d="M14.0362 21.7706C14.005 21.7795 13.9738 21.7879 13.9425 21.7966C13.9738 21.7879 14.005 21.7795 14.0362 21.7706Z" fill="black"/>
  <path d="M13.8116 21.8318C13.7776 21.8407 13.7436 21.8497 13.7095 21.8583C13.7436 21.8497 13.7776 21.8409 13.8116 21.8318Z" fill="black"/>
  <path d="M13.5176 21.9056C13.4817 21.914 13.4454 21.9219 13.4091 21.93C13.4454 21.9219 13.4817 21.914 13.5176 21.9056Z" fill="black"/>
  <path d="M11.925 22.156C11.8671 22.1609 11.8092 22.1652 11.7511 22.1691C11.8092 22.1652 11.8671 22.1609 11.925 22.156Z" fill="black"/>
  <path d="M22 11.1953C22 5.12111 17.0742 0.195312 11 0.195312C4.9258 0.195312 0 5.12111 0 11.1953C0 17.2695 4.9258 22.1953 11 22.1953C11.0646 22.1953 11.1289 22.194 11.1934 22.1928V13.6298H8.83008V10.8756H11.1934V8.84882C11.1934 6.49829 12.6283 5.21896 14.725 5.21896C15.7291 5.21896 16.5921 5.29382 16.8438 5.32722V7.78383H15.3979C14.2572 7.78383 14.0363 8.32597 14.0363 9.1214V10.8756H16.7639L16.4084 13.6298H14.0363V21.7703C18.6342 20.4522 22 16.2163 22 11.1953Z" fill="black"/>
  <path d="M11.7269 22.1709C11.6125 22.1783 11.4975 22.1842 11.3822 22.188C11.4975 22.1842 11.6125 22.1783 11.7269 22.1709Z" fill="black"/>
  <path d="M11.376 22.1882C11.3152 22.1902 11.2543 22.1918 11.1934 22.1928C11.2543 22.1918 11.3152 22.1902 11.376 22.1882Z" fill="black"/>
</svg>
