<svg width="19" height="11" viewBox="0 0 19 11" fill="none"
  xmlns="http://www.w3.org/2000/svg">
  <path d="M17.4167 0H1.58335C0.710088 0 0 0.548138 0 1.22223V9.7778C0 10.4519 0.710088 11 1.58335 11H17.4167C18.2899 11 19 10.4519 19 9.77777V1.22223C19 0.548138 18.2899 0 17.4167 0ZM1.58335 0.611102H17.4167C17.475 0.611102 17.5264 0.627516 17.5812 0.636797C16.2104 1.60523 11.6651 4.81505 10.0745 5.92132C9.94999 6.00786 9.74938 6.1111 9.50004 6.1111C9.2507 6.1111 9.05009 6.00786 8.92521 5.92104C7.33474 4.81494 2.78918 1.60494 1.41862 0.636854C1.47346 0.627573 1.52497 0.611102 1.58335 0.611102ZM0.791654 9.77777V1.22223C0.791654 1.16236 0.815033 1.10805 0.835963 1.05334C1.88512 1.79458 5.05663 4.03422 7.11309 5.47777C5.06331 6.83693 1.89098 9.15862 0.833477 9.93704C0.814811 9.88508 0.791654 9.83426 0.791654 9.77777ZM17.4167 10.3889H1.58335C1.52011 10.3889 1.46389 10.3719 1.40485 10.361C2.49761 9.55685 5.69013 7.22182 7.70387 5.89199C7.96638 6.07581 8.20618 6.24342 8.39522 6.3749C8.72148 6.60229 9.10338 6.72223 9.5 6.72223C9.89662 6.72223 10.2785 6.60226 10.6044 6.37519C10.7935 6.24365 11.0335 6.0759 11.2961 5.89199C13.31 7.22167 16.5021 9.55654 17.5951 10.361C17.5361 10.3719 17.48 10.3889 17.4167 10.3889ZM18.2083 9.77777C18.2083 9.83423 18.1852 9.88508 18.1666 9.93704C17.1086 9.15822 13.9367 6.83679 11.8869 5.4778C13.9435 4.03425 17.1145 1.7948 18.164 1.05328C18.185 1.10799 18.2083 1.16233 18.2083 1.2222V9.77777Z" fill="white"/>
</svg>
