<svg width="16" height="17" viewBox="0 0 16 17" fill="none"
  xmlns="http://www.w3.org/2000/svg">
  <path id="Vector 23" d="M4.22539 6.18845C3.40567 6.5463 5.09404 8.73706 6.04069 9.78771C6.98729 10.8384 8.99078 12.7451 9.43183 11.967C9.87289 11.1889 10.6663 10.6961 11.0078 10.547L14.8724 13.2516C15.0302 13.4268 15.0305 14.061 13.7697 15.1969C12.509 16.3329 10.2485 15.5143 9.27583 14.9629C5.85857 13.283 3.49195 10.6564 1.65063 7.55641C-0.221974 5.05565 0.728165 2.83539 1.43731 2.03785C2.48798 1.0912 3.4866 1.1432 3.4866 1.1432L5.80122 4.76847C5.61749 5.09269 5.04511 5.83059 4.22539 6.18845Z" stroke-width="1px" stroke-linejoin="round"/>
</svg>
