<svg width="22" height="23" viewBox="0 0 22 23"
  xmlns="http://www.w3.org/2000/svg">
  <path d="M13.1055 11.1953C13.1055 12.3582 12.1628 13.3008 11 13.3008C9.83716 13.3008 8.89453 12.3582 8.89453 11.1953C8.89453 10.0325 9.83716 9.08984 11 9.08984C12.1628 9.08984 13.1055 10.0325 13.1055 11.1953Z" fill="black"/>
  <path d="M15.9238 7.46977C15.8226 7.19551 15.6611 6.94727 15.4513 6.7435C15.2475 6.53369 14.9995 6.37222 14.725 6.27101C14.5025 6.18457 14.1681 6.08168 13.5523 6.05365C12.8861 6.02327 12.6864 6.01672 10.9998 6.01672C9.31316 6.01672 9.11342 6.0231 8.4474 6.05348C7.83157 6.08168 7.49706 6.18457 7.27466 6.27101C7.00023 6.37222 6.75198 6.53369 6.54839 6.7435C6.33858 6.94727 6.17711 7.19534 6.07573 7.46977C5.98929 7.69234 5.8864 8.02686 5.85837 8.64268C5.82799 9.3087 5.82144 9.50844 5.82144 11.1951C5.82144 12.8817 5.82799 13.0814 5.85837 13.7476C5.8864 14.3634 5.98929 14.6978 6.07573 14.9203C6.17711 15.1947 6.33841 15.4428 6.54822 15.6466C6.75198 15.8564 7.00006 16.0179 7.27449 16.1191C7.49706 16.2057 7.83157 16.3086 8.4474 16.3366C9.11342 16.367 9.31299 16.3734 10.9997 16.3734C12.6865 16.3734 12.8863 16.367 13.5521 16.3366C14.168 16.3086 14.5025 16.2057 14.725 16.1191C15.2759 15.9066 15.7113 15.4712 15.9238 14.9203C16.0102 14.6978 16.1131 14.3634 16.1413 13.7476C16.1717 13.0814 16.1781 12.8817 16.1781 11.1951C16.1781 9.50844 16.1717 9.3087 16.1413 8.64268C16.1133 8.02686 16.0104 7.69234 15.9238 7.46977ZM10.9998 14.4384C9.20842 14.4384 7.75621 12.9864 7.75621 11.195C7.75621 9.40353 9.20842 7.95149 10.9998 7.95149C12.7911 7.95149 14.2433 9.40353 14.2433 11.195C14.2433 12.9864 12.7911 14.4384 10.9998 14.4384ZM14.3716 8.58125C13.9529 8.58125 13.6136 8.24187 13.6136 7.82326C13.6136 7.40465 13.9529 7.06526 14.3716 7.06526C14.7902 7.06526 15.1295 7.40465 15.1295 7.82326C15.1294 8.24187 14.7902 8.58125 14.3716 8.58125Z" fill="black"/>
  <path d="M11 0.195312C4.9258 0.195312 0 5.12111 0 11.1953C0 17.2695 4.9258 22.1953 11 22.1953C17.0742 22.1953 22 17.2695 22 11.1953C22 5.12111 17.0742 0.195312 11 0.195312ZM17.2783 13.7995C17.2478 14.4718 17.1408 14.9309 16.9847 15.3327C16.6566 16.1812 15.9859 16.8519 15.1374 17.1801C14.7358 17.3362 14.2765 17.4429 13.6043 17.4736C12.9307 17.5043 12.7156 17.5117 11.0002 17.5117C9.28461 17.5117 9.0696 17.5043 8.39586 17.4736C7.72363 17.4429 7.2644 17.3362 6.86275 17.1801C6.44112 17.0214 6.05943 16.7729 5.74388 16.4514C5.42262 16.136 5.17404 15.7542 5.01543 15.3327C4.85933 14.9311 4.75241 14.4718 4.72186 13.7996C4.69081 13.1259 4.68359 12.9107 4.68359 11.1953C4.68359 9.47992 4.69081 9.26474 4.72169 8.59117C4.75224 7.91878 4.85899 7.45972 5.01509 7.05789C5.17371 6.63643 5.42245 6.25458 5.74388 5.93919C6.05927 5.61777 6.44112 5.36919 6.86258 5.21057C7.2644 5.05447 7.72346 4.94772 8.39586 4.91701C9.06943 4.88629 9.28461 4.87891 11 4.87891C12.7154 4.87891 12.9306 4.88629 13.6041 4.91718C14.2765 4.94772 14.7356 5.05447 15.1374 5.2104C15.5589 5.36902 15.9407 5.61777 16.2563 5.93919C16.5775 6.25475 16.8263 6.63643 16.9847 7.05789C17.141 7.45972 17.2478 7.91878 17.2785 8.59117C17.3092 9.26474 17.3164 9.47992 17.3164 11.1953C17.3164 12.9107 17.3092 13.1259 17.2783 13.7995Z" fill="black"/>
</svg>
