<svg width="22" height="23" viewBox="0 0 22 23"
  xmlns="http://www.w3.org/2000/svg">
  <path d="M11 0.195312C4.9258 0.195312 0 5.12111 0 11.1953C0 17.2695 4.9258 22.1953 11 22.1953C17.0742 22.1953 22 17.2695 22 11.1953C22 5.12111 17.0742 0.195312 11 0.195312ZM7.80353 16.8242H5.12453V8.76439H7.80353V16.8242ZM6.46411 7.66382H6.44666C5.54767 7.66382 4.96625 7.04497 4.96625 6.27153C4.96625 5.48064 5.56546 4.87891 6.4819 4.87891C7.39835 4.87891 7.96231 5.48064 7.97977 6.27153C7.97977 7.04497 7.39835 7.66382 6.46411 7.66382ZM17.4634 16.8242H14.7848V12.5124C14.7848 11.4288 14.3969 10.6898 13.4276 10.6898C12.6875 10.6898 12.2468 11.1883 12.0531 11.6695C11.9822 11.8417 11.965 12.0824 11.965 12.3232V16.8242H9.28612C9.28612 16.8242 9.3212 9.52054 9.28612 8.76439H11.965V9.90558C12.321 9.35638 12.9579 8.57523 14.3793 8.57523C16.1418 8.57523 17.4634 9.72716 17.4634 12.2027V16.8242Z" fill="black"/>
</svg>
