<svg width="22" height="23" viewBox="0 0 22 23"
  xmlns="http://www.w3.org/2000/svg">
  <g id="TG">
    <path id="Oval" d="M11 22.1953C17.0751 22.1953 22 17.2704 22 11.1953C22 5.12018 17.0751 0.195312 11 0.195312C4.92487 0.195312 0 5.12018 0 11.1953C0 17.2704 4.92487 22.1953 11 22.1953Z" fill="black"/>
    <path id="Path" fill-rule="evenodd" clip-rule="evenodd" d="M4.68091 11.0088C8.01884 9.65888 10.2447 8.76896 11.3583 8.339C14.5382 7.11136 15.1989 6.89811 15.6295 6.89107C15.7243 6.88952 15.9361 6.91131 16.0732 7.01463C16.1891 7.10188 16.2209 7.21973 16.2362 7.30245C16.2514 7.38517 16.2704 7.5736 16.2553 7.72084C16.083 9.40138 15.3374 13.4796 14.9581 15.3618C14.7976 16.1583 14.4816 16.4253 14.1756 16.4515C13.5107 16.5083 13.0058 16.0436 12.3617 15.6517C11.354 15.0386 10.7847 14.6569 9.80646 14.0585C8.67598 13.367 9.40883 12.987 10.0531 12.3659C10.2217 12.2033 13.1514 9.72987 13.2081 9.50549C13.2152 9.47743 13.2218 9.37282 13.1548 9.31759C13.0879 9.26235 12.989 9.28124 12.9177 9.29627C12.8167 9.31756 11.2068 10.3052 8.08803 12.2593C7.63106 12.5506 7.21715 12.6925 6.84631 12.6851C6.43748 12.6769 5.65106 12.4705 5.06644 12.2941C4.34938 12.0778 3.77947 11.9634 3.8291 11.5959C3.85495 11.4046 4.13889 11.2088 4.68091 11.0088Z" fill="#E9EDF1"/>
  </g>
</svg>
