<svg width="22" height="23" viewBox="0 0 22 23"
  xmlns="http://www.w3.org/2000/svg">
  <path d="M11 0.195312C4.9258 0.195312 0 5.12111 0 11.1953C0 17.2695 4.9258 22.1953 11 22.1953C17.0742 22.1953 22 17.2695 22 11.1953C22 5.12111 17.0742 0.195312 11 0.195312ZM16.0225 8.77194C16.0273 8.8802 16.0297 8.98897 16.0297 9.09824C16.0297 12.4345 13.4902 16.2817 8.84602 16.2819H8.84619H8.84602C7.42017 16.2819 6.09334 15.864 4.97598 15.1478C5.17354 15.1711 5.37462 15.1827 5.57822 15.1827C6.7612 15.1827 7.84985 14.7792 8.7141 14.1019C7.60883 14.0814 6.67694 13.3515 6.35535 12.3483C6.50926 12.3778 6.66754 12.3939 6.82985 12.3939C7.0603 12.3939 7.28354 12.3629 7.4957 12.3049C6.34041 12.0737 5.47012 11.0526 5.47012 9.83005C5.47012 9.81863 5.47012 9.8084 5.47046 9.79782C5.81068 9.98698 6.19975 10.1008 6.614 10.1135C5.93607 9.66119 5.49043 8.88792 5.49043 8.01193C5.49043 7.54935 5.61548 7.11597 5.83234 6.74284C7.07742 8.27058 8.93817 9.27531 11.0366 9.38089C10.9933 9.19592 10.971 9.00323 10.971 8.80518C10.971 7.41138 12.1017 6.28059 13.496 6.28059C14.2223 6.28059 14.8783 6.58759 15.339 7.07837C15.9142 6.9649 16.4543 6.75476 16.9423 6.46556C16.7534 7.05487 16.3533 7.54935 15.832 7.86205C16.3427 7.80095 16.8295 7.6655 17.2818 7.46442C16.944 7.97081 16.5154 8.4156 16.0225 8.77194Z" fill="black"/>
</svg>
